<svg width="1080" height="1920" viewBox="0 0 1080 1920" fill="none" xmlns="http://www.w3.org/2000/svg">
  <defs>
    <linearGradient id="bg" x1="120" y1="60" x2="960" y2="1840" gradientUnits="userSpaceOnUse">
      <stop stop-color="#171B22"/>
      <stop offset="1" stop-color="#090B10"/>
    </linearGradient>
    <linearGradient id="shell" x1="180" y1="150" x2="900" y2="1770" gradientUnits="userSpaceOnUse">
      <stop stop-color="#1A202A" stop-opacity="0.97"/>
      <stop offset="1" stop-color="#10141B" stop-opacity="0.99"/>
    </linearGradient>
    <linearGradient id="accent" x1="230" y1="0" x2="850" y2="0" gradientUnits="userSpaceOnUse">
      <stop stop-color="#F4B662"/>
      <stop offset="1" stop-color="#D88B38"/>
    </linearGradient>
  </defs>

  <rect width="1080" height="1920" fill="url(#bg)"/>
  <circle cx="872" cy="194" r="214" fill="#F4B662" fill-opacity="0.08"/>
  <rect x="180" y="160" width="720" height="1596" rx="44" fill="url(#shell)"/>
  <rect x="181.5" y="161.5" width="717" height="1593" rx="42.5" stroke="white" stroke-opacity="0.06" stroke-width="3"/>

  <text x="230" y="254" fill="#8FA0B5" font-size="28" font-weight="550" font-family="Inter, Segoe UI, Arial, sans-serif">Back</text>
  <text x="230" y="346" fill="#F6F7F9" font-size="72" font-weight="700" font-family="Inter, Segoe UI, Arial, sans-serif">Settings</text>
  <text x="232" y="400" fill="#A7B1BF" font-size="26" font-weight="500" font-family="Inter, Segoe UI, Arial, sans-serif">Machine configuration</text>

  <rect x="230" y="470" width="620" height="112" rx="28" fill="#11161D" fill-opacity="0.76"/>
  <rect x="230" y="608" width="620" height="112" rx="28" fill="#11161D" fill-opacity="0.76"/>
  <rect x="230" y="746" width="620" height="112" rx="28" fill="#11161D" fill-opacity="0.76"/>
  <rect x="230" y="884" width="620" height="112" rx="28" fill="#11161D" fill-opacity="0.76"/>
  <rect x="230" y="1022" width="620" height="112" rx="28" fill="#11161D" fill-opacity="0.76"/>
  <rect x="230" y="1160" width="620" height="112" rx="28" fill="#11161D" fill-opacity="0.76"/>

  <g stroke="white" stroke-opacity="0.05" stroke-width="3">
    <rect x="231.5" y="471.5" width="617" height="109" rx="26.5"/>
    <rect x="231.5" y="609.5" width="617" height="109" rx="26.5"/>
    <rect x="231.5" y="747.5" width="617" height="109" rx="26.5"/>
    <rect x="231.5" y="885.5" width="617" height="109" rx="26.5"/>
    <rect x="231.5" y="1023.5" width="617" height="109" rx="26.5"/>
    <rect x="231.5" y="1161.5" width="617" height="109" rx="26.5"/>
  </g>

  <g font-family="Inter, Segoe UI, Arial, sans-serif">
    <text x="264" y="532" fill="#F4F6F8" font-size="28" font-weight="650">Pump Mapping</text>
    <text x="820" y="532" text-anchor="end" fill="#F4B662" font-size="24" font-weight="650">Open</text>

    <text x="264" y="670" fill="#F4F6F8" font-size="28" font-weight="650">Calibration</text>
    <text x="820" y="670" text-anchor="end" fill="#F4B662" font-size="24" font-weight="650">Open</text>

    <text x="264" y="808" fill="#F4F6F8" font-size="28" font-weight="650">Prime Pumps</text>
    <text x="264" y="846" fill="#9CA8B8" font-size="22" font-weight="500">Fill tubing after startup or hose change</text>

    <text x="264" y="946" fill="#F4F6F8" font-size="28" font-weight="650">Flush / Cleaning</text>
    <text x="264" y="984" fill="#9CA8B8" font-size="22" font-weight="500">Run cleaning liquid through the system</text>

    <text x="264" y="1084" fill="#F4F6F8" font-size="28" font-weight="650">Admin Lock</text>
    <text x="264" y="1122" fill="#9CA8B8" font-size="22" font-weight="500">Protect machine settings</text>

    <text x="264" y="1222" fill="#F4F6F8" font-size="28" font-weight="650">Service Mode</text>
    <text x="264" y="1260" fill="#9CA8B8" font-size="22" font-weight="500">Diagnostics and maintenance</text>
  </g>

  <rect x="736" y="1061" width="82" height="46" rx="23" fill="url(#accent)"/>
  <circle cx="792" cy="1084" r="18" fill="#11151B"/>

  <rect x="230" y="1390" width="620" height="122" rx="30" fill="url(#accent)"/>
  <text x="540" y="1463" text-anchor="middle" fill="#11151B" font-size="36" font-weight="750" font-family="Inter, Segoe UI, Arial, sans-serif">Save Settings</text>
</svg>
